<?xml version="1.0" encoding="UTF-8"?>
<svg xmlns="http://www.w3.org/2000/svg" xmlns:xlink="http://www.w3.org/1999/xlink" width="0" height="0">
<symbol id="CubeLogo" width="80" height="48" viewBox="0 0 80 48" fill="none">
<g clip-path="url(#clip0_195_3042)">
<path d="M0.00244141 43.7285H79.9983V47.9996H0.00244141V43.7285Z" fill="#0B63E5"/>
<path d="M0.00244141 0H79.9983V4.27109H0.00244141V0Z" fill="#0B63E5"/>
<path d="M58.4859 7.17383C59.9745 7.37691 60.632 8.54831 60.7208 9.94659C60.9411 13.4136 60.5565 17.1262 60.7079 20.6187C60.5919 21.5885 59.9359 21.9215 59.1395 22.2738L56.5074 23.2327C57.4923 23.576 58.6091 23.8671 59.5605 24.279C60.2418 24.5741 60.7348 24.9442 60.8049 25.7502C61.1593 29.8217 60.5414 34.4294 60.7909 38.5565C60.8178 39.5696 59.5141 40.8309 58.57 40.8309H44.8022V7.17383H58.4857H58.4859ZM57.0964 9.82205H48.4232V21.9523H53.6019C53.7713 21.9523 56.1631 20.4505 56.5347 20.2294C56.7055 20.1279 56.8997 20.0226 57.0964 19.9874V9.82205ZM57.1807 38.1827V26.5225L53.6019 24.515H48.4232V38.1827H57.1807Z" fill="#02142E"/>
<path d="M25.6029 7.17383V38.1825H34.9498V7.17383H38.4865V38.9086C38.4865 39.6826 37.0192 40.8351 36.2459 40.8215C32.4417 40.5895 28.2185 41.1617 24.463 40.8337C23.2041 40.7239 21.9819 39.7678 21.9819 38.3961V7.17383H25.6027H25.6029Z" fill="#02142E"/>
<path d="M16.0032 17.3392H12.3824V9.82188H3.62494V38.1825H12.3824V29.9818H16.0032V38.6524C16.0032 39.6847 14.6492 40.7522 13.6785 40.8215C10.0646 40.602 6.05254 41.1453 2.485 40.8337C1.01051 40.705 -0.00309526 39.6635 7.1018e-06 38.1439L0.000696515 9.77588C0.115139 8.22735 0.909343 7.42799 2.40468 7.17454C5.99032 7.43761 10.0756 6.81981 13.6025 7.17454C14.6076 7.27564 16.0032 8.23942 16.0032 9.35206V17.3392Z" fill="#02142E"/>
<path d="M79.8315 7.17383V9.82205H70.4846V22.3792H78.9895V25.0275H70.4846V38.1827H80V40.8308H66.8638V7.17383H79.8315Z" fill="#02142E"/>
</g>
<defs>
<clipPath>
<rect width="80" height="48" fill="white"/>
</clipPath>
</defs>
</symbol>
<symbol id="viber" width="24" height="24" viewBox="0 0 24 24" fill="none">
<path d="M14.549 2H10.349C6.29602 2 2.99902 5.29702 2.99902 9.35007V12.5001C2.99902 15.3483 4.63965 17.9287 7.19902 19.144V22.6537C7.19902 22.9582 7.57965 23.1157 7.7949 22.9005L10.8452 19.8528H14.549C18.602 19.8528 21.899 16.5558 21.899 12.5001V9.35007C21.899 5.29702 18.602 2 14.549 2ZM17.3 15.7764L16.2369 16.8159C15.1187 17.9106 12.1997 16.661 9.62715 14.0334C7.05465 11.4031 5.9259 8.45784 6.98902 7.36319L8.05215 6.32369C8.44327 5.94044 9.1074 5.94831 9.54577 6.33944L11.0788 7.90659C11.6248 8.46571 11.3938 9.40284 10.6719 9.61809C10.1732 9.77821 9.83452 10.3269 9.99465 10.8256C10.2598 11.9911 11.7377 13.448 12.8402 13.7368C13.3363 13.8523 13.8928 13.5819 14.066 13.0858C14.2944 12.3691 15.2368 12.1565 15.7854 12.7183L17.3158 14.2828C17.699 14.6736 17.6938 15.338 17.3 15.7764ZM13.4045 6.98755C13.2995 6.98755 13.1945 6.9928 13.0922 7.00592C12.9005 7.02692 12.7273 6.8878 12.7063 6.69617C12.6853 6.50455 12.8244 6.3313 13.016 6.3103C13.1447 6.29455 13.2759 6.2893 13.4045 6.2893C15.3339 6.2893 16.9037 7.85907 16.9037 9.78845C16.9037 9.91707 16.8984 10.0483 16.8827 10.177C16.8617 10.366 16.6858 10.5077 16.4968 10.4867C16.3078 10.4657 16.166 10.2898 16.187 10.1008C16.1975 9.99847 16.2054 9.89345 16.2054 9.78845C16.2054 8.24495 14.948 6.98755 13.4045 6.98755ZM15.5045 9.78845C15.5045 9.98007 15.3444 10.1376 15.1528 10.1376C14.9638 10.1376 14.8037 9.98007 14.8037 9.78845C14.8037 9.0167 14.1763 8.38932 13.4045 8.38932C13.2103 8.38932 13.0528 8.23182 13.0528 8.03757C13.0528 7.84595 13.2103 7.68843 13.4045 7.68843C14.5622 7.68843 15.5045 8.63082 15.5045 9.78845ZM18.1742 10.9198C18.1295 11.1088 17.9274 11.227 17.741 11.1771C17.5599 11.1272 17.4497 10.9382 17.4917 10.7571C17.5678 10.4421 17.6045 10.1166 17.6045 9.78845C17.6045 7.47317 15.7198 5.58842 13.4045 5.58842C13.2969 5.58842 13.1867 5.59105 13.079 5.60155C12.8874 5.61467 12.7194 5.4703 12.7037 5.27865C12.6905 5.0844 12.8349 4.9164 13.0265 4.90327C13.1525 4.89277 13.2785 4.88753 13.4045 4.88753C16.1057 4.88753 18.3054 7.0873 18.3054 9.78845C18.3054 10.1691 18.2608 10.5497 18.1742 10.9198Z" fill="#02142E"/>
</symbol>

<symbol id="telegram" width="24" height="24" viewBox="0 0 24 24" fill="none">
<path d="M20.65 4.11013L2.93388 10.9323C1.72482 11.4173 1.73182 12.0908 2.71205 12.3911L7.2605 13.8081L17.7843 7.17746C18.2819 6.87513 18.7365 7.03778 18.3628 7.36906L9.83648 15.0533H9.83447L9.83648 15.0543L9.52273 19.7362C9.98238 19.7362 10.1852 19.5256 10.443 19.2772L12.6523 17.1318L17.2477 20.5214C18.095 20.9874 18.7036 20.748 18.9144 19.7381L21.931 5.54103C22.2398 4.30471 21.4584 3.74493 20.65 4.11013Z" fill="#02142E"/>
</symbol>
<symbol fill="none" xmlns="http://www.w3.org/2000/svg" viewBox="0 0 48 74" id="CubeFooter">
    <g clip-path="url(#clip0_107_8544)">
      <path d="M35.0911 54.1479C35.9843 54.2698 36.3788 54.9726 36.4321 55.8116C36.5642 57.8918 36.3335 60.1194 36.4243 62.2149C36.3547 62.7967 35.9611 62.9965 35.4833 63.2079L33.9041 63.7832C34.495 63.9893 35.1651 64.1639 35.7359 64.4111C36.1447 64.5881 36.4405 64.8102 36.4825 65.2938C36.6952 67.7367 36.3244 70.5013 36.4742 72.9776C36.4903 73.5854 35.7081 74.3422 35.1416 74.3422H26.881V54.1479H35.091H35.0911ZM34.2574 55.7369H29.0535V63.015H32.1608C32.2624 63.015 33.6975 62.1139 33.9204 61.9813C34.0229 61.9204 34.1394 61.8572 34.2574 61.8361V55.7369ZM34.308 72.7533V65.7571L32.1608 64.5526H29.0535V72.7533H34.308Z" fill="white"></path>
      <path d="M15.3623 54.1479V72.7532H20.9704V54.1479H23.0924V73.1888C23.0924 73.6532 22.2121 74.3447 21.7481 74.3365C19.4656 74.1974 16.9317 74.5407 14.6783 74.3439C13.923 74.278 13.1897 73.7043 13.1897 72.8813V54.1479H15.3622H15.3623Z" fill="white"></path>
      <path d="M9.60191 60.2472H7.42943V55.7368H2.17496V72.7532H7.42943V67.8327H9.60191V73.0351C9.60191 73.6545 8.7895 74.295 8.20709 74.3365C6.03875 74.2048 3.63152 74.5308 1.491 74.3439C0.606308 74.2666 -0.00185715 73.6418 4.26108e-06 72.73L0.000417909 55.7092C0.0690834 54.7801 0.545606 54.3004 1.44281 54.1484C3.59419 54.3062 6.04536 53.9355 8.16148 54.1484C8.76458 54.209 9.60191 54.7873 9.60191 55.4549V60.2472Z" fill="white"></path>
      <path d="M47.8988 54.1479V55.7369H42.2906V63.2712H47.3936V64.8601H42.2906V72.7533H47.9999V74.3421H40.1182V54.1479H47.8988Z" fill="white"></path>
      <path d="M3.80374 10.0507L15.1289 14.7828C15.1289 14.7828 14.7582 19.0976 15.4676 20.0303C16.0982 20.5951 17.7795 21.0286 18.5809 20.3586C19.3822 19.6887 20.4987 18.0073 20.6432 16.4179C20.7877 14.8284 20.6695 14.0665 20.1966 12.7398C19.7237 11.413 20.1703 10.0337 20.8402 9.52144C21.5102 9.00916 22.4166 8.23418 22.4166 8.23418C22.4166 8.23418 18.7647 8.39183 15.9142 13.0156C14.7057 12.5822 5.05071 8.51871 5.05071 8.51871L23.9019 3.66724L42.8125 8.38301L31.8745 13.0769C31.8745 13.0769 30.4646 10.0557 27.8461 9.0048C27.058 8.62824 26.1647 8.38301 26.1647 8.38301C26.1647 8.38301 24.7372 8.68078 23.9754 10.1345C23.2135 11.5882 26.4537 14.4868 26.5763 14.5919C26.6989 14.6971 28.7219 15.9493 29.9304 16.4749C31.1389 17.0003 32.3912 17.5345 32.6627 18.1124C32.7152 17.298 32.6714 16.1683 32.4612 14.6182C33.4771 14.1804 44 9.77548 44 9.77548L40.8202 30.7931L25.3875 42.2762L25.2933 25.8605C25.2933 25.8605 29.3086 25.1468 30.8061 22.594C30.828 22.0555 29.5888 20.2383 27.5615 20.4703C25.5342 20.7025 24.5006 21.2388 23.9019 21.7052C23.3033 22.1714 21.1095 23.7938 20.6563 23.9711C20.2031 24.1485 19.4084 24.4046 18.6859 24.2075C18.4429 24.1156 18.7709 24.4571 18.8598 24.5032C18.9486 24.5491 20.8797 25.7773 22.6465 25.9218C22.6465 26.9398 22.7274 42.4141 22.7274 42.4141L6.9511 30.7887L3.80374 10.0507Z" fill="white"></path>
    </g>
    <defs>
      <clipPath id="clip0_107_8544">
        <rect width="48" height="74" fill="white"></rect>
      </clipPath>
    </defs>
  </symbol>
  <symbol id="instagramIcon" width="45" height="44" viewBox="0 0 45 44" fill="none">
<rect x="0.5" width="44" height="44" rx="5" fill="white" fill-opacity="0.1"/>
<path d="M22.5 12C25.217 12 25.556 12.01 26.622 12.06C27.687 12.11 28.412 12.277 29.05 12.525C29.71 12.779 30.266 13.123 30.822 13.678C31.3305 14.1779 31.724 14.7826 31.975 15.45C32.222 16.087 32.39 16.813 32.44 17.878C32.487 18.944 32.5 19.283 32.5 22C32.5 24.717 32.49 25.056 32.44 26.122C32.39 27.187 32.222 27.912 31.975 28.55C31.7247 29.2178 31.3311 29.8226 30.822 30.322C30.322 30.8303 29.7173 31.2238 29.05 31.475C28.413 31.722 27.687 31.89 26.622 31.94C25.556 31.987 25.217 32 22.5 32C19.783 32 19.444 31.99 18.378 31.94C17.313 31.89 16.588 31.722 15.95 31.475C15.2823 31.2245 14.6775 30.8309 14.178 30.322C13.6694 29.8222 13.2759 29.2175 13.025 28.55C12.777 27.913 12.61 27.187 12.56 26.122C12.513 25.056 12.5 24.717 12.5 22C12.5 19.283 12.51 18.944 12.56 17.878C12.61 16.812 12.777 16.088 13.025 15.45C13.2752 14.7822 13.6688 14.1773 14.178 13.678C14.6777 13.1692 15.2824 12.7757 15.95 12.525C16.588 12.277 17.312 12.11 18.378 12.06C19.444 12.013 19.783 12 22.5 12ZM22.5 17C21.1739 17 19.9022 17.5268 18.9645 18.4645C18.0268 19.4022 17.5 20.6739 17.5 22C17.5 23.3261 18.0268 24.5979 18.9645 25.5355C19.9022 26.4732 21.1739 27 22.5 27C23.8261 27 25.0979 26.4732 26.0355 25.5355C26.9732 24.5979 27.5 23.3261 27.5 22C27.5 20.6739 26.9732 19.4022 26.0355 18.4645C25.0979 17.5268 23.8261 17 22.5 17ZM29 16.75C29 16.4185 28.8683 16.1005 28.6339 15.8661C28.3995 15.6317 28.0815 15.5 27.75 15.5C27.4185 15.5 27.1005 15.6317 26.8661 15.8661C26.6317 16.1005 26.5 16.4185 26.5 16.75C26.5 17.0815 26.6317 17.3995 26.8661 17.6339C27.1005 17.8683 27.4185 18 27.75 18C28.0815 18 28.3995 17.8683 28.6339 17.6339C28.8683 17.3995 29 17.0815 29 16.75ZM22.5 19C23.2956 19 24.0587 19.3161 24.6213 19.8787C25.1839 20.4413 25.5 21.2044 25.5 22C25.5 22.7956 25.1839 23.5587 24.6213 24.1213C24.0587 24.6839 23.2956 25 22.5 25C21.7044 25 20.9413 24.6839 20.3787 24.1213C19.8161 23.5587 19.5 22.7956 19.5 22C19.5 21.2044 19.8161 20.4413 20.3787 19.8787C20.9413 19.3161 21.7044 19 22.5 19Z" fill="white"/>
</symbol>

<symbol id="youtubeIcon" width="45" height="44" viewBox="0 0 45 44" fill="none">
<rect x="0.5" width="44" height="44" rx="5" fill="white" fill-opacity="0.1"/>
<g clip-path="url(#clip0_107_8636)">
<path d="M32.0812 17.1966C31.968 16.7727 31.7474 16.3889 31.443 16.086C31.1299 15.7739 30.7462 15.5505 30.3281 15.4372C28.7633 15.0043 22.4942 15.0043 22.4942 15.0043C19.8806 14.9731 17.2677 15.1104 14.6702 15.4153C14.2521 15.5371 13.8691 15.7654 13.5554 16.0799C13.2471 16.3912 13.0238 16.7751 12.9071 17.1957C12.6269 18.78 12.4908 20.3886 12.5005 22C12.4905 23.6099 12.6263 25.218 12.9071 26.8043C13.0213 27.2231 13.2437 27.6053 13.5529 27.914C13.862 28.2226 14.2469 28.4456 14.6702 28.5637C16.2558 28.9957 22.4942 28.9957 22.4942 28.9957C25.1111 29.0269 27.7273 28.8897 30.3281 28.5847C30.7462 28.4712 31.1299 28.248 31.443 27.9358C31.7513 27.6271 31.9704 27.2432 32.0804 26.8253C32.3679 25.2415 32.5077 23.6323 32.4978 22.0201C32.5195 20.4012 32.3798 18.7851 32.0812 17.1966ZM20.5011 24.9941V19.0067L25.7171 22.0009L20.5011 24.9941Z" fill="white"/>
</g>
<defs>
<clipPath>
<rect width="20" height="20" fill="white" transform="translate(12.5 12)"/>
</clipPath>
</defs>
</symbol>
<symbol id="CUBELOGO2" width="36" height="70" viewBox="0 0 36 70" fill="none">
<path d="M-36 11.7798L-15.9063 20.1758C-15.9063 20.1758 -16.5639 27.8315 -15.3053 29.4862C-14.1865 30.4883 -11.2034 31.2575 -9.78157 30.0688C-8.3599 28.8802 -6.37887 25.897 -6.12252 23.0768C-5.86603 20.2568 -6.07578 18.905 -6.91485 16.551C-7.75389 14.197 -6.9615 11.7497 -5.77286 10.8408C-4.58422 9.93192 -2.97609 8.5569 -2.97609 8.5569C-2.97609 8.5569 -9.45538 8.83662 -14.5129 17.0404C-16.6571 16.2713 -33.7875 9.06174 -33.7875 9.06174L-0.340767 0.453979L33.2115 8.82098L13.8047 17.1492C13.8047 17.1492 11.3032 11.7887 6.65741 9.92419C5.25901 9.25607 3.67415 8.82098 3.67415 8.82098C3.67415 8.82098 1.14142 9.34929 -0.21032 11.9285C-1.56211 14.5079 4.18682 19.6507 4.40442 19.8372C4.62191 20.0238 8.21119 22.2456 10.3554 23.178C12.4995 24.1102 14.7215 25.058 15.2032 26.0834C15.2963 24.6385 15.2187 22.6341 14.8458 19.8839C16.6482 19.107 35.3185 11.2916 35.3185 11.2916L29.6766 48.5822L2.29517 68.9562L2.12804 39.8305C2.12804 39.8305 9.2521 38.5642 11.9091 34.035C11.9479 33.0794 9.7494 29.8553 6.15238 30.267C2.55539 30.6789 0.721458 31.6305 -0.340767 32.4579C-1.40281 33.2852 -5.29507 36.1637 -6.09925 36.4782C-6.90324 36.7929 -8.31333 37.2474 -9.59519 36.8977C-10.0264 36.7347 -9.44437 37.3405 -9.2867 37.4222C-9.12909 37.5038 -5.70292 39.683 -2.56816 39.9393C-2.56816 41.7455 -2.42455 69.2008 -2.42455 69.2008L-30.4158 48.5744L-36 11.7798Z" fill="#0B63E5"/>
</symbol>
<symbol id="phone" width="40" height="40" fill="none"><g clip-path="url(#a)"><rect width="40" height="40" fill="#F4F7FA" rx="4"/><path fill="#02142E" d="M30.534 26.036c-.298-.333-1.215-1.164-1.872-1.658-.644-.507-1.7-1.192-2.111-1.404-.672-.35-1.684-.31-2.312.112a9.21 9.21 0 0 0-1.428 1.228l-.01.01a1.45 1.45 0 0 1-1.866.204 20.57 20.57 0 0 1-2.984-2.478 20.58 20.58 0 0 1-2.478-2.985 1.45 1.45 0 0 1 .204-1.866l.01-.01a9.21 9.21 0 0 0 1.228-1.427c.422-.629.461-1.64.112-2.313-.212-.41-.898-1.465-1.404-2.111-.495-.657-1.325-1.574-1.658-1.872-.544-.49-1.462-.617-2.102-.268a8.735 8.735 0 0 0-1.504 1.08l-.049.042c-2.832 2.437-.968 9.239 4.586 14.782 5.546 5.555 12.346 7.42 14.783 4.588l.043-.048a8.711 8.711 0 0 0 1.08-1.504c.35-.64.222-1.559-.268-2.102Z"/></g><defs><clipPath><path fill="#fff" d="M0 0h40v40H0z"/></clipPath></defs></symbol>
</svg>
